<svg width="33" height="34" viewBox="0 0 33 34" fill="none" xmlns="http://www.w3.org/2000/svg">
<path d="M22.1054 20.0389C20.8562 20.0389 20.0092 20.8316 19.7763 22.0648H24.4557C24.244 20.8316 23.3547 20.0389 22.1054 20.0389ZM22.1054 20.0389C20.8562 20.0389 20.0092 20.8316 19.7763 22.0648H24.4557C24.244 20.8316 23.3547 20.0389 22.1054 20.0389ZM22.1054 20.0389C20.8562 20.0389 20.0092 20.8316 19.7763 22.0648H24.4557C24.244 20.8316 23.3547 20.0389 22.1054 20.0389ZM22.1054 20.0389C20.8562 20.0389 20.0092 20.8316 19.7763 22.0648H24.4557C24.244 20.8316 23.3547 20.0389 22.1054 20.0389ZM22.1054 20.0389C20.8562 20.0389 20.0092 20.8316 19.7763 22.0648H24.4557C24.244 20.8316 23.3547 20.0389 22.1054 20.0389ZM22.1054 20.0389C20.8562 20.0389 20.0092 20.8316 19.7763 22.0648H24.4557C24.244 20.8316 23.3547 20.0389 22.1054 20.0389ZM22.1054 20.0389C20.8562 20.0389 20.0092 20.8316 19.7763 22.0648H24.4557C24.244 20.8316 23.3547 20.0389 22.1054 20.0389ZM22.1054 20.0389C20.8562 20.0389 20.0092 20.8316 19.7763 22.0648H24.4557C24.244 20.8316 23.3547 20.0389 22.1054 20.0389ZM27.9706 0H4.72175C2.11738 0 0 2.20207 0 4.91062V29.0894C0 31.7979 2.11738 34 4.72175 34H27.9706C30.5749 34 32.6923 31.7979 32.6923 29.0894V4.91062C32.6923 2.20207 30.5749 0 27.9706 0ZM12.3443 8.56606H11.9844C10.7774 8.56606 10.1634 9.24871 10.1634 10.4598V13.829C10.1634 15.8109 9.59172 16.6697 8.27894 17.0661C9.59172 17.4624 10.1634 18.3212 10.1634 20.3031V23.6723C10.1634 24.8834 10.7774 25.5661 11.9844 25.5661H12.3443V29.3756H10.6928C7.15673 29.3756 5.35696 27.5039 5.35696 24.2448V20.149C5.35696 19.3342 4.93349 18.9598 4.2771 18.9598H3.40898V15.1282H4.2771C4.93349 15.1282 5.35696 14.7539 5.35696 13.9391V9.86528C5.35696 6.60622 7.15673 4.73446 10.6928 4.73446H12.3443V8.56606ZM28.1399 24.2668H19.8398C20.1786 25.478 21.1738 26.1826 22.6348 26.1826C23.757 26.1826 24.4769 25.8523 25.2603 25.1477L27.3565 27.4158C26.2555 28.693 24.6674 29.3316 22.4865 29.3316C18.4212 29.3316 15.7956 26.7332 15.7956 23.1878C15.7956 19.6205 18.4635 17.0881 22.0631 17.0881C25.4297 17.0881 28.1611 19.3122 28.1611 23.2319C28.2035 23.5402 28.1611 23.9365 28.1399 24.2668ZM29.2621 18.9598H28.4364C28.3093 18.9598 28.1823 18.9819 28.0764 19.0039C26.9966 17.3523 25.1968 16.2733 23.0159 16.0311C22.6983 15.5246 22.5501 14.7979 22.5501 13.807V10.4598C22.5501 9.24871 21.936 8.56606 20.7291 8.56606H20.3268V4.75648H21.9995C25.5356 4.75648 27.3353 6.62824 27.3353 9.88731V13.9611C27.3353 14.7759 27.7588 15.1503 28.4152 15.1503H29.241V18.9598H29.2621ZM22.1054 20.0389C20.8562 20.0389 20.0092 20.8316 19.7763 22.0648H24.4557C24.244 20.8316 23.3547 20.0389 22.1054 20.0389ZM22.1054 20.0389C20.8562 20.0389 20.0092 20.8316 19.7763 22.0648H24.4557C24.244 20.8316 23.3547 20.0389 22.1054 20.0389ZM22.1054 20.0389C20.8562 20.0389 20.0092 20.8316 19.7763 22.0648H24.4557C24.244 20.8316 23.3547 20.0389 22.1054 20.0389ZM22.1054 20.0389C20.8562 20.0389 20.0092 20.8316 19.7763 22.0648H24.4557C24.244 20.8316 23.3547 20.0389 22.1054 20.0389ZM22.1054 20.0389C20.8562 20.0389 20.0092 20.8316 19.7763 22.0648H24.4557C24.244 20.8316 23.3547 20.0389 22.1054 20.0389ZM22.1054 20.0389C20.8562 20.0389 20.0092 20.8316 19.7763 22.0648H24.4557C24.244 20.8316 23.3547 20.0389 22.1054 20.0389ZM22.1054 20.0389C20.8562 20.0389 20.0092 20.8316 19.7763 22.0648H24.4557C24.244 20.8316 23.3547 20.0389 22.1054 20.0389Z" fill="#E2E2E2"/>
</svg>
