<svg width="57" height="27" viewBox="0 0 57 27" fill="none" xmlns="http://www.w3.org/2000/svg">
<path d="M23.004 13.04C24.084 13.52 24.912 14.18 25.488 15.02C26.088 15.836 26.388 16.82 26.388 17.972C26.388 20.636 25.284 22.64 23.076 23.984C20.892 25.328 18.072 26 14.616 26H0.072L5.112 0.799998H18.468C21.42 0.799998 23.664 1.328 25.2 2.384C26.736 3.416 27.504 4.892 27.504 6.812C27.504 8.228 27.108 9.476 26.316 10.556C25.524 11.612 24.42 12.44 23.004 13.04ZM12.276 6.74L11.52 10.484H15.84C17.712 10.484 18.648 9.752 18.648 8.288C18.648 7.784 18.456 7.4 18.072 7.136C17.688 6.872 17.136 6.74 16.416 6.74H12.276ZM15.084 20.06C15.948 20.06 16.644 19.868 17.172 19.484C17.7 19.076 17.964 18.5 17.964 17.756C17.964 17.228 17.76 16.82 17.352 16.532C16.968 16.244 16.476 16.1 15.876 16.1H10.404L9.612 20.06H15.084ZM47.2478 12.716H54.6278L52.4678 23.588C51.1238 24.548 49.5758 25.292 47.8238 25.82C46.0958 26.324 44.2358 26.576 42.2438 26.576C39.6758 26.576 37.4078 26.108 35.4398 25.172C33.4958 24.212 31.9838 22.88 30.9038 21.176C29.8478 19.472 29.3198 17.516 29.3198 15.308C29.3198 12.38 30.0038 9.776 31.3718 7.496C32.7398 5.216 34.6478 3.44 37.0957 2.168C39.5438 0.871999 42.3518 0.223999 45.5198 0.223999C50.7518 0.223999 54.5678 1.868 56.9678 5.156L50.8838 9.872C50.0918 8.864 49.2398 8.156 48.3278 7.748C47.4158 7.316 46.3478 7.1 45.1238 7.1C43.6598 7.1 42.3758 7.424 41.2718 8.072C40.1918 8.72 39.3518 9.632 38.7518 10.808C38.1758 11.96 37.8878 13.28 37.8878 14.768C37.8878 16.256 38.3798 17.456 39.3638 18.368C40.3478 19.256 41.7038 19.7 43.4318 19.7C44.2958 19.7 45.1238 19.58 45.9158 19.34L47.2478 12.716Z" fill="white"/>
</svg>
