<svg width="87" height="34" viewBox="0 0 87 34" fill="none" xmlns="http://www.w3.org/2000/svg">
<path d="M8.66527 4.20884C9.55511 4.20884 10.3743 4.41642 11.1229 4.83158C11.8856 5.24674 12.4859 5.848 12.9238 6.63537C13.3757 7.40842 13.6017 8.32463 13.6017 9.384C13.6017 10.6581 13.3192 11.8105 12.7543 12.8413C12.2034 13.8577 11.4478 14.6594 10.4873 15.2463C9.52686 15.8189 8.46047 16.1053 7.28815 16.1053C6.39832 16.1053 5.62854 15.9478 4.97883 15.6328C4.32911 15.3179 3.82769 14.8455 3.47458 14.2156L3.1356 15.9335H0L3.1356 0H6.44069L5.38137 5.36842C6.29945 4.59537 7.39409 4.20884 8.66527 4.20884ZM6.9068 13.3352C7.55652 13.3352 8.13561 13.1777 8.64409 12.8627C9.15256 12.5335 9.54804 12.0825 9.83053 11.5099C10.113 10.9373 10.2543 10.2787 10.2543 9.53432C10.2543 8.74695 10.0212 8.12421 9.55511 7.66611C9.10313 7.208 8.46753 6.97895 7.64832 6.97895C7.01273 6.97895 6.44069 7.14358 5.93222 7.47284C5.42374 7.78779 5.02826 8.23158 4.74577 8.80421C4.46329 9.37684 4.32204 10.0354 4.32204 10.7798C4.32204 11.5672 4.54803 12.1899 5.00001 12.648C5.45199 13.1061 6.08758 13.3352 6.9068 13.3352Z" fill="#E2E2E2"/>
<path d="M28.6532 4.38063L26.7676 14.0008C26.3439 16.1768 25.5247 17.7659 24.31 18.768C23.1094 19.7701 21.4993 20.2712 19.4795 20.2712C18.3778 20.2712 17.3608 20.1423 16.4286 19.8846C15.5106 19.6269 14.7196 19.2476 14.0557 18.7465L15.6235 16.32C16.0755 16.7065 16.6546 17.0072 17.3608 17.2219C18.0812 17.4509 18.8368 17.5655 19.6278 17.5655C20.7436 17.5655 21.5911 17.3149 22.1702 16.8139C22.7493 16.3272 23.1447 15.5827 23.3566 14.5806L23.4414 14.0867C22.5233 14.9457 21.3651 15.3752 19.9668 15.3752C19.0204 15.3752 18.1659 15.1819 17.4032 14.7954C16.6405 14.3945 16.0332 13.8291 15.5812 13.0989C15.1433 12.3688 14.9244 11.5099 14.9244 10.5221C14.9244 9.34821 15.1998 8.28168 15.7507 7.32253C16.3015 6.36337 17.0572 5.60463 18.0176 5.04632C18.9922 4.488 20.0798 4.20884 21.2803 4.20884C22.1702 4.20884 22.947 4.38063 23.6109 4.72421C24.2888 5.05347 24.7973 5.56884 25.1363 6.27032L25.4965 4.38063H28.6532ZM20.8566 12.6265C21.8171 12.6265 22.608 12.3116 23.2295 11.6817C23.851 11.0518 24.1617 10.2429 24.1617 9.25516C24.1617 8.55368 23.9357 8.00253 23.4837 7.60168C23.0318 7.18653 22.4032 6.97895 21.5981 6.97895C20.6236 6.97895 19.8185 7.2939 19.1829 7.92379C18.5614 8.55368 18.2507 9.36253 18.2507 10.3503C18.2507 11.0518 18.4837 11.6101 18.9498 12.0253C19.4159 12.4261 20.0515 12.6265 20.8566 12.6265Z" fill="#E2E2E2"/>
<path d="M34.5896 5.75495C35.0839 5.21095 35.6772 4.81726 36.3693 4.57389C37.0755 4.33053 37.9017 4.20884 38.8481 4.20884L38.2549 7.30105C37.8594 7.27242 37.6051 7.25811 37.4921 7.25811C36.4893 7.25811 35.6842 7.50863 35.0769 8.00968C34.4837 8.51074 34.0811 9.29095 33.8693 10.3503L32.7676 15.9335H29.4625L31.7294 4.38063H34.865L34.5896 5.75495Z" fill="#E2E2E2"/>
<path d="M52.2353 4.38063L49.9683 15.9335H46.8327L47.0446 14.7954C46.0983 15.6686 44.933 16.1053 43.5488 16.1053C42.659 16.1053 41.8398 15.8977 41.0912 15.4825C40.3426 15.0674 39.7423 14.4733 39.2903 13.7002C38.8525 12.9128 38.6336 11.9895 38.6336 10.9301C38.6336 9.656 38.909 8.51074 39.4598 7.49432C40.0248 6.46358 40.7875 5.66189 41.748 5.08926C42.7084 4.50232 43.7678 4.20884 44.9259 4.20884C46.6774 4.20884 47.9132 4.78863 48.6336 5.94821L48.9302 4.38063H52.2353ZM44.5658 13.3352C45.2155 13.3352 45.7946 13.1777 46.3031 12.8627C46.8115 12.5335 47.207 12.0825 47.4895 11.5099C47.772 10.9373 47.9132 10.2787 47.9132 9.53432C47.9132 8.74695 47.6802 8.12421 47.2141 7.66611C46.7621 7.208 46.1265 6.97895 45.3073 6.97895C44.6576 6.97895 44.0785 7.14358 43.57 7.47284C43.0615 7.78779 42.6661 8.23158 42.3836 8.80421C42.1011 9.37684 41.9598 10.0354 41.9598 10.7798C41.9598 11.5672 42.1858 12.1899 42.6378 12.648C43.1039 13.1061 43.7466 13.3352 44.5658 13.3352Z" fill="#E2E2E2"/>
<path d="M58.9817 16.1053C57.8376 16.1053 56.8277 15.8905 55.952 15.4611C55.0904 15.0316 54.4195 14.4303 53.9393 13.6573C53.4732 12.8699 53.2402 11.9608 53.2402 10.9301C53.2402 9.656 53.5368 8.51074 54.13 7.49432C54.7232 6.4779 55.5424 5.67621 56.5876 5.08926C57.6328 4.50232 58.8122 4.20884 60.1258 4.20884C61.284 4.20884 62.2938 4.42358 63.1554 4.85305C64.017 5.28253 64.6809 5.89095 65.147 6.67832C65.6272 7.45137 65.8673 8.35326 65.8673 9.384C65.8673 10.6581 65.5707 11.8034 64.9775 12.8198C64.3984 13.8362 63.5792 14.6379 62.5198 15.2248C61.4746 15.8118 60.2953 16.1053 58.9817 16.1053ZM59.1936 13.3352C59.8292 13.3352 60.4012 13.1777 60.9097 12.8627C61.4181 12.5335 61.8136 12.0825 62.0961 11.5099C62.3786 10.9373 62.5198 10.2787 62.5198 9.53432C62.5198 8.74695 62.2939 8.12421 61.8419 7.66611C61.3899 7.208 60.7543 6.97895 59.9351 6.97895C59.2854 6.97895 58.7063 7.14358 58.1978 7.47284C57.6893 7.78779 57.2938 8.23158 57.0114 8.80421C56.7289 9.37684 56.5876 10.0354 56.5876 10.7798C56.5876 11.5672 56.8136 12.1899 57.2656 12.648C57.7317 13.1061 58.3744 13.3352 59.1936 13.3352Z" fill="#E2E2E2"/>
<path d="M75.3863 9.40547L79.3058 15.9335H75.4711L72.7592 11.4455L70.7465 13.1419L70.1956 15.9335H66.8905L70.0261 0H73.3312L71.5728 8.91158L77.0389 4.38063H81.3397L75.3863 9.40547Z" fill="#E2E2E2"/>
<path d="M81.0042 8.54653H87L86.4703 11.2307H80.4746L81.0042 8.54653Z" fill="#E2E2E2"/>
<path d="M16.5678 22.1036C17.8108 22.1036 18.7995 22.4472 19.5339 23.1343C20.2684 23.8072 20.6356 24.7663 20.6356 26.0118C20.6356 26.4699 20.5862 26.9423 20.4873 27.4291L19.2373 33.8282H15.9322L17.1399 27.6653C17.1964 27.3789 17.2246 27.0855 17.2246 26.7848C17.2246 26.1979 17.0692 25.7541 16.7585 25.4535C16.4619 25.1528 16.017 25.0025 15.4238 25.0025C13.8277 25.0025 12.832 25.9688 12.4365 27.9015L11.2712 33.8282H7.96612L9.17375 27.6653C9.23025 27.3789 9.2585 27.0926 9.2585 26.8063C9.2585 26.2194 9.10313 25.7756 8.79239 25.4749C8.49578 25.16 8.05087 25.0025 7.45764 25.0025C5.8616 25.0025 4.85877 25.9832 4.44916 27.9444L3.30509 33.8282H0L2.26695 22.2754H5.40255L5.14832 23.4779C6.13702 22.5617 7.33053 22.1036 8.72883 22.1036C9.5198 22.1036 10.219 22.2682 10.8263 22.5975C11.4478 22.9124 11.9139 23.3777 12.2246 23.9933C12.7755 23.3777 13.4181 22.9124 14.1526 22.5975C14.887 22.2682 15.6921 22.1036 16.5678 22.1036Z" fill="#E2E2E2"/>
<path d="M35.971 22.2754L33.7041 33.8282H30.5685L30.8015 32.5827C30.3072 33.0552 29.7422 33.4131 29.1066 33.6564C28.471 33.8855 27.8001 34 27.0939 34C25.8509 34 24.8552 33.6564 24.1066 32.9693C23.3721 32.2821 23.0049 31.3158 23.0049 30.0703C23.0049 29.5979 23.0543 29.1326 23.1532 28.6745L24.4032 22.2754H27.7083L26.5007 28.4598C26.4442 28.7318 26.4159 29.0109 26.4159 29.2973C26.4159 30.4998 27.0515 31.1011 28.3227 31.1011C29.156 31.1011 29.8411 30.8577 30.3778 30.3709C30.9286 29.8699 31.3029 29.1255 31.5007 28.1377L32.6659 22.2754H35.971Z" fill="#E2E2E2"/>
<path d="M40.9186 34C39.9299 34 38.9906 33.8926 38.1008 33.6779C37.225 33.4488 36.54 33.1554 36.0457 32.7975L37.3169 30.3709C37.8112 30.7002 38.4115 30.9651 39.1177 31.1655C39.838 31.3659 40.5584 31.4661 41.2787 31.4661C42.0273 31.4661 42.5852 31.3731 42.9525 31.1869C43.3197 30.9865 43.5033 30.7074 43.5033 30.3495C43.5033 30.0632 43.3409 29.8556 43.016 29.7267C42.6912 29.5979 42.1686 29.4619 41.4482 29.3187C40.629 29.1613 39.951 28.9895 39.4143 28.8034C38.8917 28.6173 38.4327 28.3166 38.0372 27.9015C37.6558 27.472 37.4652 26.8922 37.4652 26.1621C37.4652 24.888 37.9878 23.8931 39.033 23.1773C40.0923 22.4615 41.4765 22.1036 43.1855 22.1036C43.9765 22.1036 44.7462 22.1895 45.4948 22.3613C46.2434 22.5331 46.879 22.7693 47.4016 23.0699L46.2152 25.5179C45.283 24.9309 44.1601 24.6375 42.8465 24.6375C42.1262 24.6375 41.5753 24.7448 41.194 24.9596C40.8267 25.1743 40.6431 25.4463 40.6431 25.7756C40.6431 26.0762 40.8056 26.2981 41.1304 26.4413C41.4553 26.5701 41.9991 26.7133 42.7618 26.8707C43.5669 27.0282 44.2237 27.2 44.7321 27.3861C45.2547 27.5579 45.7067 27.8514 46.0881 28.2665C46.4694 28.6817 46.6601 29.2472 46.6601 29.9629C46.6601 31.2514 46.1234 32.2463 45.0499 32.9478C43.9906 33.6493 42.6135 34 40.9186 34Z" fill="#E2E2E2"/>
<path d="M56.9197 22.1036C58.1908 22.1036 59.2007 22.4472 59.9493 23.1343C60.6979 23.8215 61.0722 24.7949 61.0722 26.0547C61.0722 26.5128 61.0228 26.9709 60.9239 27.4291L59.6527 33.8282H56.3476L57.5764 27.6438C57.6329 27.4004 57.6612 27.1356 57.6612 26.8493C57.6612 26.248 57.4988 25.7899 57.1739 25.4749C56.849 25.16 56.3617 25.0025 55.712 25.0025C54.8646 25.0025 54.1583 25.2531 53.5934 25.7541C53.0425 26.2408 52.6682 26.9781 52.4705 27.9659L51.3264 33.8282H48.0213L51.1569 17.8947H54.462L53.4027 23.3276C54.3773 22.5116 55.5496 22.1036 56.9197 22.1036Z" fill="#E2E2E2"/>
</svg>
