<svg width="20" height="16" viewBox="0 0 20 16" fill="none" xmlns="http://www.w3.org/2000/svg">
<path d="M17.7013 0.399888C17.8253 0.273279 17.9734 0.172697 18.1369 0.104032C18.3003 0.0353678 18.4758 0 18.6531 0C18.8304 0 19.0059 0.0353678 19.1693 0.104032C19.3327 0.172697 19.4808 0.273279 19.6049 0.399888C20.1249 0.925353 20.1322 1.77446 19.6231 2.30902L8.87199 15.0184C8.74992 15.1524 8.60179 15.2601 8.43666 15.335C8.27153 15.4098 8.09287 15.4501 7.91161 15.4535C7.73035 15.4569 7.55031 15.4233 7.38248 15.3548C7.21466 15.2862 7.06259 15.1841 6.93558 15.0547L0.39363 8.42551C0.141328 8.1682 0 7.82221 0 7.46185C0 7.10149 0.141328 6.7555 0.39363 6.49819C0.517716 6.37158 0.665814 6.271 0.829254 6.20234C0.992694 6.13367 1.16819 6.09831 1.34547 6.09831C1.52275 6.09831 1.69824 6.13367 1.86168 6.20234C2.02512 6.271 2.17322 6.37158 2.29731 6.49819L7.84651 12.1219L17.6649 0.439889C17.6762 0.425837 17.6883 0.412479 17.7013 0.399888Z" fill="#1861EE"/>
</svg>
